<?xml version="1.0" encoding="UTF-8" standalone="no"?>
<svg xmlns="http://www.w3.org/2000/svg" version="1.1"
  width="512" height="512" viewBox="0 0 135.46666 135.46666" >
   <circle style="fill:none;stroke:#768daa;stroke-width:10.5" cx="67.73333" cy="67.73333" r="62" />
   <path style="fill:#768daa;fill-opacity:1"
     d="m 70.781335,81.805 v -1.7272 c 0,-6.5024 3.048,-7.112 8.4328,-9.3472 11.4808,-4.7752 13.5128,-8.7376 13.5128,-19.9136 0,-18.5928 -8.9408,-21.4376 -23.9776,-21.4376 -19.4056,0 -26.0096,3.2512 -26.0096,20.9296 v 2.7432 h 12.8016 v -2.7432 c -0.3048,-8.9408 2.2352,-10.2616 12.7,-10.2616 9.2456,0 11.684,1.016 11.684,10.7696 0,8.636 -3.7592,8.9408 -10.7696,11.9888 -9.5504,4.1656 -11.176,6.4008 -11.176,17.272 v 1.7272 z
        m 0,10.3632 h -12.8016 v 13.9192 h 12.8016 z" />
</svg>
