<?xml version="1.0" encoding="UTF-8" standalone="no"?>
<svg
   xmlns:dc="http://purl.org/dc/elements/1.1/"
   xmlns:cc="http://creativecommons.org/ns#"
   xmlns:rdf="http://www.w3.org/1999/02/22-rdf-syntax-ns#"
   xmlns:svg="http://www.w3.org/2000/svg"
   xmlns="http://www.w3.org/2000/svg"
   id="svg81"
   viewBox="0 0 300 78.75"
   height="105"
   width="400"
   version="1.1">
  <metadata
     id="metadata85">
    <rdf:RDF>
      <cc:Work
         rdf:about="">
        <dc:format>image/svg+xml</dc:format>
        <dc:type
           rdf:resource="http://purl.org/dc/dcmitype/StillImage" />
        <dc:title></dc:title>
      </cc:Work>
    </rdf:RDF>
  </metadata>
  <defs
     id="defs11">
    <g
       id="g9">
      <path
         id="path5"
         d="M 43.40625,-34.09375 C 43.5,-44.5 39.40625,-47.296875 24.203125,-47.296875 8.203125,-47.296875 4,-44.5 4,-33.703125 c 0,7.40625 2.203125,11 7.703125,12.40625 C 14.5,-20.5 21.5,-20 29,-19.90625 c 5.296875,0.109375 6.703125,1.40625 6.703125,6.609375 C 35.703125,-7.5 33.40625,-6.09375 24,-6.09375 19.40625,-6.09375 16.5,-6.5 15.296875,-7.203125 13.796875,-8.09375 13,-10.203125 13,-13 c 0,-0.296875 0,-1 0.09375,-1.796875 h -9.5 v 2 c 0,10.09375 4.90625,13.390625 20.109375,13.390625 9.59375,0 14.09375,-0.890625 17.203125,-3.5 2.59375,-2.1875 4,-6 4,-11 0,-7.390625 -2.703125,-11.390625 -8.609375,-12.6875 -2,-0.40625 -2,-0.40625 -11,-0.90625 C 17.09375,-27.90625 17.09375,-27.90625 16,-28.203125 c -2.09375,-0.703125 -2.90625,-2.296875 -2.90625,-6 0,-5.5 1.40625,-6.390625 10.609375,-6.390625 9.5,0 10.296875,0.5 10.703125,6.5 z" />
      <path
         id="path8"
         d="m 36.90625,-14.59375 c 0,7 -1.5,8 -11.3125,8 -6.390625,0 -9.5,-1.109375 -10.59375,-3.90625 -0.90625,-2.09375 -1.40625,-5.5 -1.40625,-9.796875 v -1.40625 H 46.203125 C 46.203125,-31.296875 46,-34 45.09375,-37.09375 42.796875,-44.796875 37.90625,-47.296875 25.5,-47.296875 c -17.09375,0 -21.296875,4.703125 -21.296875,23.796875 0,19.5 4.09375,24.09375 21.5,24.09375 15.203125,0 20.5,-3.5 20.5,-13.390625 v -1.796875 z m -23.203125,-13.3125 c 0.09375,-10.59375 1.796875,-12.390625 12,-12.390625 6.5,0 9,0.890625 10.296875,3.703125 0.796875,1.6875 0.90625,2.5 1,8.6875 z" />
      <path
         id="path11"
         d="M 5.703125,-46.703125 V 0 h 9.203125 v -26.796875 c 0,-9.296875 3.296875,-12.90625 12.09375,-12.90625 4.09375,0 6.90625,1 8.09375,3 0.703125,1.203125 0.703125,1.296875 0.90625,7 V 0 h 9.203125 v -27.203125 c 0,-3.59375 0.296875,-6.09375 1,-7.59375 C 47.5,-38 51.5,-39.703125 57.40625,-39.703125 c 7,0 9,2.296875 9,9.90625 V 0 h 9.1875 v -30.703125 c 0,-5.09375 -0.59375,-8.203125 -1.890625,-10.5 -2.296875,-4 -7.203125,-6.09375 -14.296875,-6.09375 C 51.296875,-47.296875 46.703125,-44.90625 44,-39 H 43.796875 C 42.5,-44.5 37.59375,-47.296875 29.5,-47.296875 21.703125,-47.296875 17.5,-45 14.90625,-39.5 l -0.203125,-0.09375 0.203125,-7.109375 z" />
      <path
         id="path14"
         d="M 46.203125,-66.703125 H 37 V -40.5 l -0.203125,0.09375 c -1.890625,-4.890625 -6.09375,-6.890625 -14.5,-6.890625 -6.390625,0 -10.890625,1.5 -13.5,4.296875 -3.390625,3.796875 -4.5,8.5 -4.5,18.90625 0,11.6875 1.109375,16.59375 4.40625,20.1875 2.703125,3 7.5,4.5 14,4.5 8.203125,0 12.203125,-2.09375 14.59375,-7.5 L 37.5,-6.796875 37.203125,0 h 9 z M 25,-39.796875 c 9.59375,0 12,3.09375 12,15.296875 0,7.90625 -0.703125,12.40625 -2.09375,14.40625 -1.5,2.1875 -4.703125,3.296875 -9.8125,3.296875 -9.5,0 -11.390625,-2.90625 -11.390625,-17.5 0,-7.109375 0.890625,-11.40625 2.703125,-13.296875 1.296875,-1.40625 4.5,-2.203125 8.59375,-2.203125 z" />
      <path
         id="path17"
         d="M 14.90625,-66.703125 H 5.703125 V -58 h 9.203125 z m 0,20 H 5.703125 V 0 h 9.203125 z m 0,0" />
      <path
         id="path20"
         d="m 36.59375,-17.40625 c 0,9.109375 -1.5,10.609375 -10.5,10.609375 -5.1875,0 -8.09375,-0.5 -9.5,-1.796875 -2.09375,-1.8125 -3,-6.40625 -3,-14.5 0,-14.5 1.5,-16.8125 10.90625,-16.8125 9.5,0 11.5,1.5 11.40625,9.109375 H 45 c -0.09375,-12.796875 -4.59375,-16.5 -20.09375,-16.5 -9.109375,0 -14.5,1.890625 -17.40625,6.203125 C 5.09375,-37.5 4.203125,-32.90625 4.203125,-23.5 c 0,19.5 4.09375,24.09375 21.390625,24.09375 8.5,0 12.609375,-0.890625 15.8125,-3.390625 2.890625,-2.5 4.296875,-6.40625 4.296875,-12.609375 v -2 z" />
      <path
         id="path23"
         d="m 25.40625,-47.296875 c -17.40625,0 -21.203125,4.203125 -21.203125,22.890625 0,12.90625 1.203125,17.90625 5,21.3125 3,2.6875 7.5,3.6875 16.5,3.6875 C 43.5,0.59375 47,-3.5 47,-24.296875 c 0,-19.109375 -3.703125,-23 -21.59375,-23 z m 0.1875,7.390625 c 10.5,0 11.90625,1.8125 11.90625,16 0,15.109375 -1.40625,17.109375 -11.796875,17.109375 -10.796875,0 -12,-1.703125 -12,-17.203125 0,-8.5 0.796875,-12.5 2.890625,-14.203125 1.3125,-1.09375 4.3125,-1.703125 9,-1.703125 z" />
    </g>
  </defs>
  <g
     transform="translate(1.5)"
     id="text193"
     style="fill:#304761;"
     aria-label="Scicopia">
    <path
       id="path4894"
       style="fill:#304761;"
       d="m 83.463472,29.393668 q 0.06818,-2.369318 -1.431818,-3.630682 -1.5,-1.261364 -4.329546,-1.261364 -2.965909,0 -4.840909,1.295455 -1.875,1.278409 -2.215909,3.255682 -0.255682,1.448863 0.477273,2.386363 0.732954,0.9375 2.011363,1.517046 1.278409,0.5625 2.659091,0.903409 l 3.136364,0.818182 q 2.505682,0.613636 4.636364,1.823863 2.147727,1.193182 3.289772,3.204546 1.142046,1.994318 0.630682,5.028409 -0.511364,3.068182 -2.471591,5.403409 -1.943182,2.318182 -5.113636,3.630682 -3.153409,1.295454 -7.346591,1.295454 -6.102273,0 -9.272727,-2.8125 -3.170455,-2.829545 -2.488637,-8.028409 h 6.221591 q -0.272727,2.744318 1.568182,4.090909 1.857955,1.346591 4.806818,1.346591 3.102273,0 5.25,-1.363636 2.164773,-1.380682 2.522727,-3.613637 0.357955,-2.028409 -1.210227,-3.068181 -1.551136,-1.056819 -4.278409,-1.772728 l -3.784091,-1.022727 q -4.107954,-1.125 -6.238636,-3.375 -2.113637,-2.25 -1.5,-6 0.528409,-3.102273 2.573863,-5.403409 2.0625,-2.318182 5.164773,-3.596591 3.119318,-1.295454 6.784091,-1.295454 3.715909,0 6.289773,1.295454 2.590909,1.295455 3.801136,3.613636 1.210227,2.301137 0.784091,5.335228 z" />
    <path
       id="path4896"
       style="fill:#304761;"
       d="m 102.53734,55.047077 q -3.920459,0 -6.443186,-1.721591 -2.522728,-1.721591 -3.528409,-4.772727 -0.988637,-3.051137 -0.323864,-7.005682 0.647727,-4.005682 2.676136,-7.039773 2.028409,-3.051136 5.130683,-4.772727 3.11932,-1.721591 6.95454,-1.721591 4.78978,0 7.41478,2.573864 2.64204,2.573863 2.26704,6.835227 h -5.91477 q -0.0341,-1.892046 -1.17614,-3.153409 -1.125,-1.278409 -3.34091,-1.278409 -2.88068,0 -5.01136,2.25 -2.113635,2.232954 -2.744317,6.204545 -0.664773,4.005682 0.681818,6.289773 1.363639,2.284091 4.244319,2.284091 2.02841,0 3.63068,-1.159091 1.61932,-1.159091 2.38636,-3.272727 h 5.89773 q -0.71591,2.778409 -2.48863,4.926136 -1.77273,2.130682 -4.39773,3.340909 -2.625,1.193182 -5.91477,1.193182 z" />
    <path
       id="path4898"
       style="fill:#304761;"
       d="m 118.93506,54.535713 4.36364,-26.181818 h 6.17045 l -4.36363,26.181818 z m 8.35228,-29.931818 q -1.46591,0 -2.45455,-0.971591 -0.97159,-0.988636 -0.85227,-2.369318 0.13636,-1.397727 1.26136,-2.369318 1.125,-0.988637 2.60796,-0.988637 1.4659,0 2.42045,0.988637 0.97159,0.971591 0.85227,2.369318 -0.10227,1.380682 -1.24432,2.369318 -1.125,0.971591 -2.5909,0.971591 z" />
    <path
       id="path4900"
       style="fill:#304761;"
       d="m 142.75609,55.047077 q -3.92046,0 -6.44319,-1.721591 -2.52272,-1.721591 -3.52841,-4.772727 -0.98863,-3.051137 -0.32386,-7.005682 0.64773,-4.005682 2.67614,-7.039773 2.02841,-3.051136 5.13068,-4.772727 3.11932,-1.721591 6.95454,-1.721591 4.78978,0 7.41478,2.573864 2.64204,2.573863 2.26704,6.835227 h -5.91477 q -0.0341,-1.892046 -1.17614,-3.153409 -1.125,-1.278409 -3.34091,-1.278409 -2.88068,0 -5.01136,2.25 -2.11364,2.232954 -2.74432,6.204545 -0.66477,4.005682 0.68182,6.289773 1.36364,2.284091 4.24432,2.284091 2.02841,0 3.63068,-1.159091 1.61932,-1.159091 2.38636,-3.272727 h 5.89773 q -0.71591,2.778409 -2.48863,4.926136 -1.77273,2.130682 -4.39773,3.340909 -2.625,1.193182 -5.91477,1.193182 z" />
    <path
       id="path4902"
       style="fill:#304761;"
       d="m 170.67654,55.047077 q -3.86932,0 -6.44318,-1.704546 -2.55682,-1.721591 -3.61364,-4.789772 -1.03977,-3.085228 -0.375,-7.159091 0.66477,-4.022728 2.67614,-7.022728 2.01136,-3.017045 5.0625,-4.6875 3.06818,-1.670454 6.85227,-1.670454 3.86932,0 6.42614,1.721591 2.57386,1.704545 3.61363,4.789773 1.05682,3.085227 0.39205,7.193181 -0.66477,4.005682 -2.69318,7.005682 -2.01137,3 -5.0625,4.670455 -3.05114,1.653409 -6.83523,1.653409 z m 0.49432,-4.943182 q 2.14773,0 3.78409,-1.159091 1.63636,-1.176136 2.67614,-3.153409 1.05681,-1.994318 1.44886,-4.431818 0.39204,-2.352273 0.0341,-4.261364 -0.35795,-1.926136 -1.53409,-3.051136 -1.17614,-1.142046 -3.23864,-1.142046 -2.14772,0 -3.78409,1.176137 -1.63636,1.176136 -2.69318,3.170454 -1.03977,1.994318 -1.43182,4.431818 -0.375,2.352273 -0.0341,4.261364 0.35796,1.909091 1.53409,3.034091 1.17614,1.125 3.23864,1.125 z" />
    <path
       id="path4904"
       style="fill:#304761;"
       d="m 186.6737,64.353895 6,-36 h 6.06818 l -0.71591,4.329545 h 0.375 q 0.61364,-0.954545 1.65341,-2.028409 1.05682,-1.090909 2.67614,-1.857954 1.61932,-0.784091 3.92045,-0.784091 3.03409,0 5.21591,1.551136 2.18182,1.551137 3.11932,4.551137 0.95454,3 0.22159,7.363636 -0.69886,4.3125 -2.625,7.329545 -1.90909,3.017046 -4.61932,4.602273 -2.71023,1.585227 -5.79545,1.585227 -2.25,0 -3.61364,-0.75 -1.34659,-0.75 -2.0625,-1.806818 -0.71591,-1.073863 -1.03977,-2.028409 h -0.28977 l -2.31819,13.943182 z m 9.86932,-22.909091 q -0.61364,3.801136 0.59659,6.153409 1.22727,2.335227 4.17613,2.335227 3.05114,0 5.01137,-2.403409 1.96023,-2.403409 2.59091,-6.085227 0.59659,-3.664773 -0.57955,-6.017045 -1.15909,-2.352273 -4.24432,-2.352273 -2.98295,0 -4.96022,2.284091 -1.97728,2.267045 -2.59091,6.085227 z" />
    <path
       id="path4906"
       style="fill:#304761;"
       d="m 218.31006,54.535713 4.36364,-26.181818 h 6.17045 l -4.36363,26.181818 z m 8.35228,-29.931818 q -1.46591,0 -2.45455,-0.971591 -0.97159,-0.988636 -0.85227,-2.369318 0.13636,-1.397727 1.26136,-2.369318 1.125,-0.988637 2.60796,-0.988637 1.4659,0 2.42045,0.988637 0.97159,0.971591 0.85227,2.369318 -0.10227,1.380682 -1.24432,2.369318 -1.125,0.971591 -2.5909,0.971591 z" />
    <path
       id="path4908"
       style="fill:#304761;"
       d="m 238.24472,55.064122 q -3.73295,0 -5.91477,-2.011363 -2.18182,-2.011364 -1.55114,-5.863637 0.49432,-2.948863 2.18182,-4.568182 1.70455,-1.636363 4.09091,-2.369318 2.40341,-0.75 4.97727,-1.022727 3.51137,-0.375 5.07955,-0.715909 1.58523,-0.340909 1.80682,-1.636364 V 36.77435 q 0.30681,-1.926137 -0.61364,-2.982955 -0.92045,-1.056818 -3.06818,-1.056818 -2.25,0 -3.78409,0.988636 -1.53409,0.971591 -2.23296,2.335227 l -5.59091,-0.818181 q 1.58523,-3.579546 4.875,-5.403409 3.30682,-1.823864 7.43182,-1.823864 1.875,0 3.66477,0.443182 1.80682,0.443182 3.1875,1.465909 1.39773,1.022727 2.04546,2.761363 0.66477,1.738637 0.22159,4.329546 l -2.91477,17.522727 h -5.93182 l 0.61364,-3.596591 h -0.20455 q -1.09091,1.653409 -3.1875,2.897728 -2.09659,1.227272 -5.18182,1.227272 z m 2.33523,-4.534091 q 2.77841,0 4.6875,-1.602272 1.92614,-1.602273 2.28409,-3.784091 l 0.51136,-3.085228 q -0.44318,0.323864 -1.53409,0.579546 -1.09091,0.238636 -2.30113,0.409091 -1.19319,0.170454 -2.01137,0.289773 -2.11363,0.289772 -3.64772,1.125 -1.5341,0.835227 -1.80682,2.625 -0.27273,1.6875 0.80113,2.573863 1.09091,0.869318 3.01705,0.869318 z" />
  </g>
  <g
     id="text264"
     style="fill:#7998bc;"
     aria-label="search Science">
    <path
       id="path4911"
       style="fill:#7998bc;"
       d="m 203.83544,63.33513 -1.38708,0.238637 q -0.0646,-0.392756 -0.35298,-0.705966 -0.28835,-0.318182 -0.98438,-0.318182 -0.64133,0 -1.12357,0.293324 -0.47728,0.288352 -0.54688,0.745738 -0.0646,0.367898 0.17401,0.596591 0.23863,0.223722 0.84019,0.37287 l 1.1733,0.278409 q 2.02344,0.482244 1.75994,2.093039 -0.11434,0.681108 -0.59659,1.208097 -0.47727,0.526989 -1.22301,0.825284 -0.74574,0.298296 -1.66051,0.298296 -1.30256,0 -2.02841,-0.551847 -0.72088,-0.551847 -0.74574,-1.56108 l 1.47159,-0.21875 q 0.0845,1.133523 1.42188,1.133523 0.74077,0.005 1.2429,-0.31321 0.5071,-0.318182 0.5767,-0.770597 0.0597,-0.352983 -0.15909,-0.586647 -0.21378,-0.233665 -0.75568,-0.357955 l -1.23296,-0.283381 q -2.03835,-0.477272 -1.75,-2.147727 0.11435,-0.671165 0.57174,-1.173295 0.45738,-0.502131 1.16335,-0.78054 0.70596,-0.278409 1.56108,-0.278409 1.24787,0 1.87429,0.53196 0.62642,0.53196 0.71591,1.431818 z" />
    <path
       id="path4913"
       style="fill:#7998bc;"
       d="m 207.91214,69.261267 q -1.12358,0 -1.85937,-0.487216 -0.7358,-0.487216 -1.02912,-1.367188 -0.28836,-0.884943 -0.0895,-2.068182 0.19389,-1.173295 0.78054,-2.068182 0.58665,-0.894886 1.46165,-1.397017 0.87997,-0.50213 1.94389,-0.50213 0.87003,0 1.57599,0.387784 0.71094,0.382812 1.05398,1.227983 0.34801,0.840199 0.11435,2.222301 l -0.0845,0.526989 h -5.43892 q -0.19389,1.242897 0.29332,1.769886 0.48722,0.526989 1.49645,0.526989 0.65128,0 1.14844,-0.273438 0.50213,-0.273437 0.79545,-0.815341 l 1.36222,0.253551 q -0.40767,0.929688 -1.34233,1.496449 -0.92969,0.566762 -2.18253,0.566762 z m -1.3821,-4.638495 h 3.96236 q 0.14914,-0.875 -0.27344,-1.446733 -0.42259,-0.576704 -1.29261,-0.576704 -0.58168,0 -1.08878,0.298295 -0.50213,0.298296 -0.85014,0.765625 -0.34802,0.462358 -0.45739,0.959517 z" />
    <path
       id="path4915"
       style="fill:#7998bc;"
       d="m 215.07372,69.276181 q -0.72585,0 -1.26776,-0.268466 -0.5419,-0.273437 -0.80042,-0.790483 -0.25355,-0.522017 -0.13424,-1.267755 0.14915,-0.865057 0.65625,-1.327415 0.50711,-0.462358 1.21307,-0.666193 0.70597,-0.203835 1.44176,-0.288352 0.69603,-0.08452 1.12855,-0.139205 0.43253,-0.05469 0.65128,-0.169034 0.22372,-0.119318 0.26847,-0.382813 v -0.0348 q 0.1044,-0.646307 -0.18892,-1.004261 -0.28835,-0.362926 -1.00426,-0.362926 -0.74574,0 -1.25284,0.328125 -0.50214,0.328125 -0.74077,0.735795 l -1.33239,-0.318182 q 0.53693,-1.044034 1.49148,-1.496448 0.95454,-0.452415 1.98864,-0.452415 0.45738,0 0.94957,0.109375 0.49219,0.104403 0.89489,0.392755 0.40767,0.283381 0.60653,0.805398 0.19886,0.522017 0.0597,1.357244 l -0.8402,5.071023 h -1.4517 l 0.17897,-1.044034 h -0.0597 q -0.28338,0.427557 -0.89488,0.820313 -0.61151,0.392755 -1.56108,0.392755 z m 0.5071,-1.193182 q 0.62145,0 1.09872,-0.243607 0.48225,-0.243608 0.78054,-0.636364 0.2983,-0.397727 0.37287,-0.850142 l 0.16406,-0.984375 q -0.12429,0.104403 -0.48721,0.183949 -0.36293,0.07955 -0.76563,0.134233 -0.4027,0.05469 -0.6463,0.08949 -0.65625,0.08452 -1.16833,0.34304 -0.5071,0.253551 -0.60156,0.850142 -0.0895,0.551847 0.26349,0.835227 0.35796,0.278409 0.98935,0.278409 z" />
    <path
       id="path4917"
       style="fill:#7998bc;"
       d="m 220.82833,69.107147 1.27273,-7.636363 h 1.43679 l -0.20383,1.213068 h 0.0795 q 0.30824,-0.616478 0.89986,-0.96946 0.59162,-0.357955 1.26278,-0.357955 0.14418,0 0.32813,0.005 0.18395,0.005 0.29829,0.02983 l -0.23863,1.421875 q -0.0845,-0.02486 -0.31321,-0.05469 -0.22372,-0.0348 -0.45739,-0.0348 -0.78551,0 -1.3821,0.487216 -0.59659,0.482245 -0.73082,1.232955 l -0.76563,4.663352 z" />
    <path
       id="path4919"
       style="fill:#7998bc;"
       d="m 229.13835,69.261267 q -1.10867,0 -1.82458,-0.502131 -0.71093,-0.507102 -0.99431,-1.397017 -0.27841,-0.889915 -0.0845,-2.038352 0.18892,-1.168324 0.7706,-2.058239 0.58664,-0.889915 1.46662,-1.392046 0.88494,-0.50213 1.96377,-0.50213 1.30256,0 2.0483,0.705966 0.74574,0.700994 0.67614,1.859375 h -1.44674 q -0.0298,-0.536932 -0.39275,-0.924716 -0.36293,-0.387784 -1.07387,-0.387784 -0.93466,0 -1.62571,0.72088 -0.69105,0.715909 -0.88494,1.943892 -0.21378,1.24787 0.22869,1.983665 0.44745,0.730824 1.39205,0.730824 0.63636,0 1.14346,-0.348011 0.51208,-0.348012 0.75569,-0.964489 h 1.4517 q -0.21378,0.740767 -0.71591,1.322443 -0.49716,0.581676 -1.22798,0.914773 -0.72585,0.333097 -1.62571,0.333097 z" />
    <path
       id="path4921"
       style="fill:#7998bc;"
       d="m 236.13586,64.573056 -0.74574,4.534091 h -1.4865 l 1.69034,-10.181818 h 1.46662 l -0.62642,3.788352 h 0.0945 q 0.36292,-0.621449 0.97443,-0.979403 0.61648,-0.362926 1.51136,-0.362926 1.1733,0 1.77486,0.725852 0.60156,0.720881 0.3679,2.152699 l -0.81534,4.857244 h -1.48651 l 0.77557,-4.678267 q 0.13921,-0.840199 -0.21875,-1.302557 -0.35795,-0.467329 -1.11861,-0.467329 -0.79545,0 -1.39701,0.50213 -0.60157,0.49716 -0.76066,1.411932 z" />
    <path
       id="path4923"
       style="fill:#7998bc;"
       d="m 252.94481,61.659704 q 0.01,-0.755682 -0.48224,-1.148437 -0.49219,-0.397728 -1.36719,-0.397728 -0.93963,0 -1.56108,0.427557 -0.62145,0.427557 -0.72585,1.078835 -0.0845,0.487216 0.15909,0.795455 0.24858,0.303267 0.65128,0.482244 0.4027,0.174006 0.78054,0.273438 l 0.95454,0.258522 q 0.46236,0.119319 0.93963,0.328125 0.47728,0.203836 0.86009,0.536932 0.38281,0.328125 0.57173,0.820313 0.18892,0.492187 0.0746,1.178267 -0.14418,0.860085 -0.701,1.536221 -0.55185,0.676137 -1.45668,1.063921 -0.89985,0.382812 -2.09801,0.382812 -1.71022,0 -2.59517,-0.800426 -0.87997,-0.800426 -0.72585,-2.182528 h 1.54617 q -0.0795,0.830255 0.5071,1.232954 0.59162,0.402699 1.47656,0.402699 0.9794,0 1.69034,-0.452415 0.71591,-0.457386 0.83523,-1.198153 0.0795,-0.452415 -0.12926,-0.740767 -0.20384,-0.288352 -0.61151,-0.477273 -0.40767,-0.18892 -0.93466,-0.333096 l -1.14844,-0.328125 q -1.16832,-0.338069 -1.76988,-0.979404 -0.60156,-0.646307 -0.43253,-1.710227 0.15412,-0.879972 0.7358,-1.536222 0.58664,-0.661221 1.46164,-1.024147 0.87997,-0.362927 1.89915,-0.362927 1.03409,0 1.75994,0.367898 0.72586,0.362926 1.07387,1.014205 0.34801,0.646307 0.24361,1.491477 z" />
    <path
       id="path4925"
       style="fill:#7998bc;"
       d="m 258.2321,69.261267 q -1.10867,0 -1.82458,-0.502131 -0.71093,-0.507102 -0.99431,-1.397017 -0.27841,-0.889915 -0.0845,-2.038352 0.18892,-1.168324 0.7706,-2.058239 0.58664,-0.889915 1.46662,-1.392046 0.88494,-0.50213 1.96377,-0.50213 1.30256,0 2.0483,0.705966 0.74574,0.700994 0.67614,1.859375 h -1.44674 q -0.0298,-0.536932 -0.39275,-0.924716 -0.36293,-0.387784 -1.07387,-0.387784 -0.93466,0 -1.62571,0.72088 -0.69105,0.715909 -0.88494,1.943892 -0.21378,1.24787 0.22869,1.983665 0.44745,0.730824 1.39205,0.730824 0.63636,0 1.14346,-0.348011 0.51208,-0.348012 0.75569,-0.964489 h 1.4517 q -0.21378,0.740767 -0.71591,1.322443 -0.49716,0.581676 -1.22798,0.914773 -0.72585,0.333097 -1.62571,0.333097 z" />
    <path
       id="path4927"
       style="fill:#7998bc;"
       d="m 262.9924,69.107147 1.27272,-7.636363 h 1.48651 l -1.27273,7.636363 z m 2.32173,-8.829545 q -0.38281,0 -0.65128,-0.258523 -0.26349,-0.263494 -0.24361,-0.62642 0.0149,-0.367898 0.30327,-0.626421 0.28835,-0.263494 0.67614,-0.263494 0.38281,0 0.6463,0.263494 0.26847,0.258523 0.24858,0.626421 -0.0149,0.362926 -0.30326,0.62642 -0.28836,0.258523 -0.67614,0.258523 z" />
    <path
       id="path4929"
       style="fill:#7998bc;"
       d="m 269.73636,69.261267 q -1.12358,0 -1.85937,-0.487216 -0.7358,-0.487216 -1.02912,-1.367188 -0.28836,-0.884943 -0.0895,-2.068182 0.19389,-1.173295 0.78054,-2.068182 0.58664,-0.894886 1.46164,-1.397017 0.87998,-0.50213 1.9439,-0.50213 0.87003,0 1.57599,0.387784 0.71094,0.382812 1.05398,1.227983 0.34801,0.840199 0.11434,2.222301 l -0.0845,0.526989 h -5.43892 q -0.19389,1.242897 0.29332,1.769886 0.48722,0.526989 1.49645,0.526989 0.65128,0 1.14844,-0.273438 0.50213,-0.273437 0.79545,-0.815341 l 1.36222,0.253551 q -0.40767,0.929688 -1.34233,1.496449 -0.92969,0.566762 -2.18253,0.566762 z m -1.3821,-4.638495 h 3.96236 q 0.14914,-0.875 -0.27344,-1.446733 -0.42259,-0.576704 -1.29262,-0.576704 -0.58167,0 -1.08877,0.298295 -0.50213,0.298296 -0.85015,0.765625 -0.34801,0.462358 -0.45738,0.959517 z" />
    <path
       id="path4931"
       style="fill:#7998bc;"
       d="m 276.93274,64.573056 -0.74574,4.534091 h -1.48651 l 1.27273,-7.636363 h 1.42685 l -0.20881,1.242897 h 0.0945 q 0.36293,-0.611505 0.98935,-0.974432 0.63139,-0.367897 1.49147,-0.367897 1.15839,0 1.75498,0.730824 0.60156,0.725852 0.36789,2.147727 l -0.81534,4.857244 h -1.4865 l 0.78054,-4.678267 q 0.1392,-0.830256 -0.21378,-1.297585 -0.35298,-0.472301 -1.11364,-0.472301 -0.78054,0 -1.36221,0.50213 -0.58168,0.49716 -0.74574,1.411932 z" />
    <path
       id="path4933"
       style="fill:#7998bc;"
       d="m 286.25944,69.261267 q -1.10866,0 -1.82457,-0.502131 -0.71094,-0.507102 -0.99432,-1.397017 -0.27841,-0.889915 -0.0845,-2.038352 0.18892,-1.168324 0.7706,-2.058239 0.58665,-0.889915 1.46662,-1.392046 0.88494,-0.50213 1.96378,-0.50213 1.30255,0 2.04829,0.705966 0.74574,0.700994 0.67614,1.859375 h -1.44673 q -0.0298,-0.536932 -0.39276,-0.924716 -0.36293,-0.387784 -1.07386,-0.387784 -0.93466,0 -1.62571,0.72088 -0.69105,0.715909 -0.88495,1.943892 -0.21377,1.24787 0.2287,1.983665 0.44744,0.730824 1.39204,0.730824 0.63637,0 1.14347,-0.348011 0.51207,-0.348012 0.75568,-0.964489 h 1.4517 q -0.21377,0.740767 -0.7159,1.322443 -0.49716,0.581676 -1.22799,0.914773 -0.72585,0.333097 -1.62571,0.333097 z" />
    <path
       id="path4935"
       style="fill:#7998bc;"
       d="m 294.29105,69.261267 q -1.12358,0 -1.85938,-0.487216 -0.73579,-0.487216 -1.02912,-1.367188 -0.28835,-0.884943 -0.0895,-2.068182 0.1939,-1.173295 0.78054,-2.068182 0.58665,-0.894886 1.46165,-1.397017 0.87997,-0.50213 1.94389,-0.50213 0.87003,0 1.576,0.387784 0.71094,0.382812 1.05398,1.227983 0.34801,0.840199 0.11434,2.222301 l -0.0845,0.526989 h -5.43893 q -0.19389,1.242897 0.29333,1.769886 0.48721,0.526989 1.49645,0.526989 0.65128,0 1.14844,-0.273438 0.50213,-0.273437 0.79545,-0.815341 l 1.36222,0.253551 q -0.40767,0.929688 -1.34233,1.496449 -0.92969,0.566762 -2.18253,0.566762 z m -1.3821,-4.638495 h 3.96235 q 0.14915,-0.875 -0.27343,-1.446733 -0.42259,-0.576704 -1.29262,-0.576704 -0.58167,0 -1.08878,0.298295 -0.50213,0.298296 -0.85014,0.765625 -0.34801,0.462358 -0.45738,0.959517 z" />
  </g>
  <g
     id="g4201"
     transform="matrix(1.1687386,0,0,1.1687386,-2.9057641,1.7359121)">
    <g
       transform="matrix(1.151959,0,0,1.151959,-10.522781,0.52600754)"
       id="g4004">
      <path
         style="fill:#505050"
         d="M 18,54 H 49 V 11 H 18 Z"
         id="path2948" />
      <path
         style="fill:#008a00"
         d="m 14,6 v 43 c 0,3 3,5 5,5 H 54 V 1 H 19 c -3,0 -5,2 -5,5 z"
         id="path3978" />
      <path
         style="fill:#dddddd"
         d="m 16,48 c 0,2 1,4 4,4 H 52 V 44 H 20 c -3,0 -4,2 -4,4 z"
         id="path3980" />
      <path
         style="fill:#60a917"
         d="M 23,44 H 54 V 1 H 23 Z"
         id="path3982" />
    </g>
    <path
       id="path3989"
       d="m 11.363333,8.5698526 c -2.3274671,0 -4.2578808,0.6861125 -5.8452918,1.7526874 V 22.991839 C 7.1821059,21.275297 9.1523359,20.089443 11.363333,20.089443 H 51.681898 V 8.5698526 Z"
       style="fill:#7a3b3f" />
  </g>
  <g
     id="g80">
    <path
       style="fill:none;fill-opacity:1;stroke:#e6e73f;stroke-width:1.93658471;stroke-miterlimit:4;stroke-dasharray:none;stroke-opacity:1"
       d="m 27.748986,48.528683 c -0.06148,-5.410142 -4.380047,-5.149422 -4.610915,-10.697326 -0.23087,-5.547904 4.459054,-9.959578 9.959578,-9.959578 5.500522,0 10.190446,4.411674 9.959578,9.959578 -0.23087,5.547904 -4.549437,5.287184 -4.610917,10.697325"
       id="path4575" />
    <path
       style="fill:#e6e73f;fill-opacity:1;stroke:#e6e73f;stroke-width:1.93658471;stroke-linecap:round;stroke-linejoin:miter;stroke-miterlimit:4;stroke-dasharray:none;stroke-opacity:1"
       d="M 38.44631,50.077951 H 27.748986"
       id="path4593" />
    <path
       style="fill:#e6e73f;fill-opacity:1;stroke:#e6e73f;stroke-width:1.93658471;stroke-linecap:round;stroke-linejoin:miter;stroke-miterlimit:4;stroke-dasharray:none;stroke-opacity:1"
       d="M 38.44631,52.401853 H 27.748986"
       id="path4593-6" />
    <path
       style="fill:#e6e73f;fill-opacity:1;stroke:#e6e73f;stroke-width:1.93658471;stroke-linecap:round;stroke-linejoin:miter;stroke-miterlimit:4;stroke-dasharray:none;stroke-opacity:1"
       d="M 38.44631,54.725753 H 27.748986"
       id="path4593-7" />
    <path
       style="fill:#e6e73f;fill-opacity:1;stroke:#e6e73f;stroke-width:1.93658471;stroke-linecap:round;stroke-linejoin:miter;stroke-miterlimit:4;stroke-dasharray:none;stroke-opacity:1"
       d="M 35.77198,57.049655 H 30.423317"
       id="path4593-7-5" />
    <path
       style="fill:none;fill-opacity:1;stroke:#e6e73f;stroke-width:1.41796553;stroke-linecap:round;stroke-miterlimit:4;stroke-dasharray:none;stroke-opacity:1"
       d="m 37.006831,31.510663 c -1.209584,-0.500281 -2.534053,-0.776011 -3.909184,-0.776011 -1.37513,0 -2.699599,0.27573 -3.909183,0.776011"
       id="path4575-3-6" />
  </g>
</svg>
